<svg xmlns="http://www.w3.org/2000/svg" xmlns:xlink="http://www.w3.org/1999/xlink" width="16" height="16" viewBox="0 0 16 16"><defs><style>.a{fill:#2d0404;}.b{clip-path:url(#a);}.c{fill:#099fdf;}</style><clipPath id="a"><rect class="a" width="16" height="16" transform="translate(20 36)"/></clipPath></defs><g class="b" transform="translate(-20 -36)"><g transform="translate(20 36)"><path class="c" d="M15.038,6.877a1.144,1.144,0,0,0-.2-.015H3.553L3.8,6.748a2.29,2.29,0,0,0,.647-.458L7.611,3.125a1.185,1.185,0,0,0,.166-1.517A1.145,1.145,0,0,0,6.06,1.459L.336,7.183a1.145,1.145,0,0,0,0,1.619h0L6.06,14.527a1.145,1.145,0,0,0,1.717-.114A1.185,1.185,0,0,0,7.611,12.9L4.451,9.724a2.29,2.29,0,0,0-.572-.418l-.343-.155H14.777a1.185,1.185,0,0,0,1.208-.962A1.145,1.145,0,0,0,15.038,6.877Z"/></g></g></svg>