<svg xmlns="http://www.w3.org/2000/svg" xmlns:xlink="http://www.w3.org/1999/xlink" width="22" height="22" viewBox="0 0 22 22"><defs><style>.a{fill:#a51818;}.b{clip-path:url(#a);}.c{fill:#099fdf;}</style><clipPath id="a"><rect class="a" width="22" height="22" transform="translate(86 196)"/></clipPath></defs><g class="b" transform="translate(-86 -196)"><g transform="translate(86 196)"><path class="c" d="M18.594,0H3.406a.645.645,0,0,0-.645.645V19.457a.645.645,0,0,0,.189.456l1.9,1.9a.645.645,0,0,0,.912,0L7.2,20.368l1.443,1.443a.644.644,0,0,0,.911,0L11,20.368l1.443,1.443a.644.644,0,0,0,.911,0L14.8,20.368l1.443,1.443a.644.644,0,0,0,.911,0l1.9-1.9a.645.645,0,0,0,.189-.456V.645A.644.644,0,0,0,18.594,0ZM10.355,4.841V4.1a.645.645,0,1,1,1.289,0v.736h.736a.645.645,0,1,1,0,1.289H10.54a.736.736,0,0,0,0,1.472h.921a2.025,2.025,0,0,1,.184,4.042v.745a.645.645,0,1,1-1.289,0v-.736H9.619a.645.645,0,1,1,0-1.289H11.46a.736.736,0,1,0,0-1.472H10.54a2.025,2.025,0,0,1-.184-4.042Zm4.1,11.636h-6.9a.645.645,0,1,1,0-1.289h6.9a.645.645,0,1,1,0,1.289Z"/></g></g></svg>