<svg xmlns="http://www.w3.org/2000/svg" xmlns:xlink="http://www.w3.org/1999/xlink" width="18" height="18" viewBox="0 0 18 18"><defs><style>.a{fill:#430d0d;}.b{clip-path:url(#a);}.c{fill:#099fdf;}</style><clipPath id="a"><rect class="a" width="18" height="18" transform="translate(259 157)"/></clipPath></defs><g class="b" transform="translate(-259 -157)"><g transform="translate(259 157)"><g transform="translate(3.857)"><path class="c" d="M6.214,0a.643.643,0,0,0-.643.643V1.929H6.857V.643A.643.643,0,0,0,6.214,0Z" transform="translate(-5.571)"/></g><g transform="translate(12.857)"><path class="c" d="M19.214,0a.643.643,0,0,0-.643.643V1.929h1.286V.643A.643.643,0,0,0,19.214,0Z" transform="translate(-18.571)"/></g><g transform="translate(0 1.929)"><path class="c" d="M16.071,2.786H14.143V5.357a.643.643,0,1,1-1.286,0V2.786H5.143V5.357a.643.643,0,0,1-1.286,0V2.786H1.929A1.929,1.929,0,0,0,0,4.714V16.929a1.929,1.929,0,0,0,1.929,1.929H16.071A1.929,1.929,0,0,0,18,16.929V4.714A1.929,1.929,0,0,0,16.071,2.786Zm.643,14.143a.643.643,0,0,1-.643.643H1.929a.643.643,0,0,1-.643-.643V8.571H16.714Z" transform="translate(0 -2.786)"/></g><g transform="translate(3.214 9)"><path class="c" d="M6.571,13H5.286a.643.643,0,1,0,0,1.286H6.571a.643.643,0,1,0,0-1.286Z" transform="translate(-4.643 -13)"/></g><g transform="translate(7.714 9)"><path class="c" d="M13.071,13H11.786a.643.643,0,1,0,0,1.286h1.286a.643.643,0,0,0,0-1.286Z" transform="translate(-11.143 -13)"/></g><g transform="translate(12.214 9)"><path class="c" d="M19.571,13H18.286a.643.643,0,1,0,0,1.286h1.286a.643.643,0,1,0,0-1.286Z" transform="translate(-17.643 -13)"/></g><g transform="translate(3.214 11.571)"><path class="c" d="M6.571,16.714H5.286a.643.643,0,1,0,0,1.286H6.571a.643.643,0,1,0,0-1.286Z" transform="translate(-4.643 -16.714)"/></g><g transform="translate(7.714 11.571)"><path class="c" d="M13.071,16.714H11.786a.643.643,0,1,0,0,1.286h1.286a.643.643,0,0,0,0-1.286Z" transform="translate(-11.143 -16.714)"/></g><g transform="translate(12.214 11.571)"><path class="c" d="M19.571,16.714H18.286a.643.643,0,1,0,0,1.286h1.286a.643.643,0,1,0,0-1.286Z" transform="translate(-17.643 -16.714)"/></g><g transform="translate(3.214 14.143)"><path class="c" d="M6.571,20.429H5.286a.643.643,0,1,0,0,1.286H6.571a.643.643,0,1,0,0-1.286Z" transform="translate(-4.643 -20.429)"/></g><g transform="translate(7.714 14.143)"><path class="c" d="M13.071,20.429H11.786a.643.643,0,1,0,0,1.286h1.286a.643.643,0,0,0,0-1.286Z" transform="translate(-11.143 -20.429)"/></g><g transform="translate(12.214 14.143)"><path class="c" d="M19.571,20.429H18.286a.643.643,0,1,0,0,1.286h1.286a.643.643,0,1,0,0-1.286Z" transform="translate(-17.643 -20.429)"/></g></g></g></svg>