<svg xmlns="http://www.w3.org/2000/svg" xmlns:xlink="http://www.w3.org/1999/xlink" width="23" height="23" viewBox="0 0 23 23"><defs><style>.a{fill:#ae515e;}.b{fill:#f64343;}.c{clip-path:url(#a);}.d{fill:#fff;}</style><clipPath id="a"><circle class="a" cx="7.5" cy="7.5" r="7.5" transform="translate(314 219)"/></clipPath></defs><g transform="translate(-310 -215)"><circle class="b" cx="11.5" cy="11.5" r="11.5" transform="translate(310 215)"/><g class="c"><g transform="translate(317.186 220.955)"><path class="d" d="M4.345.669H6.2V.981h.669V.626A.626.626,0,0,0,6.242,0H4.3a.626.626,0,0,0-.625.626V.981h.669Zm0,0" transform="translate(-0.958 0)"/><path class="d" d="M7.765,4.915H1.481a.3.3,0,0,0-.294.319l.525,6.5a.7.7,0,0,0,.7.642h4.43a.7.7,0,0,0,.7-.642l.525-6.5a.3.3,0,0,0-.294-.319ZM3,11.678H2.982a.335.335,0,0,1-.334-.314L2.319,6.032a.335.335,0,1,1,.668-.041l.329,5.333A.335.335,0,0,1,3,11.678Zm1.959-.334a.335.335,0,0,1-.669,0V6.011a.335.335,0,1,1,.669,0ZM6.927,6.031l-.314,5.333a.335.335,0,0,1-.334.315h-.02a.335.335,0,0,1-.314-.354l.314-5.333a.335.335,0,0,1,.668.039Zm0,0" transform="translate(-0.309 -1.281)"/><path class="d" d="M8.613,3.183l-.22-.659a.426.426,0,0,0-.4-.291H.638a.426.426,0,0,0-.4.291l-.22.659a.276.276,0,0,0,.262.363H8.351A.273.273,0,0,0,8.5,3.5a.276.276,0,0,0,.116-.321Zm0,0" transform="translate(0 -0.582)"/></g></g></g></svg>