<svg xmlns="http://www.w3.org/2000/svg" xmlns:xlink="http://www.w3.org/1999/xlink" width="26" height="25" viewBox="0 0 26 25"><defs><style>.a{fill:#ae515e;}.b{fill:#099fdf;}.c{clip-path:url(#a);}.d{fill:#fff;}</style><clipPath id="a"><ellipse class="a" cx="8" cy="8.5" rx="8" ry="8.5" transform="translate(0.5 -0.423)"/></clipPath></defs><g transform="translate(0.077)"><ellipse class="b" cx="13" cy="12.5" rx="13" ry="12.5" transform="translate(-0.077)"/><g class="c" transform="translate(4.423 4.423)"><g transform="translate(3.152 3.152)"><g transform="translate(0 7.095)"><path class="d" d="M1.028,10.35,0,13.538l3.188-1.028Z" transform="translate(0 -10.35)"/></g><g transform="translate(1.75 1.339)"><g transform="translate(0 0)"><rect class="d" width="7.095" height="3.085" transform="translate(0 5.017) rotate(-45)"/></g></g><g transform="translate(7.506)"><path class="d" d="M13.572,1.594,12.132.154a.5.5,0,0,0-.72,0L10.95.617l2.159,2.159.463-.463A.5.5,0,0,0,13.572,1.594Z" transform="translate(-10.95)"/></g></g></g></g></svg>