<svg xmlns="http://www.w3.org/2000/svg" xmlns:xlink="http://www.w3.org/1999/xlink" width="22" height="22" viewBox="0 0 22 22"><defs><style>.a{fill:#a51818;}.b{clip-path:url(#a);}.c{fill:#099fdf;}</style><clipPath id="a"><rect class="a" width="22" height="22" transform="translate(86 196)"/></clipPath></defs><g class="b" transform="translate(-86 -196)"><g transform="translate(86 196.001)"><path class="c" d="M22,6.89c-.04.362-.086.723-.119,1.086-.081.893-.155,1.786-.235,2.679a1.184,1.184,0,0,1-.043.254.308.308,0,0,1-.473.2A1.048,1.048,0,0,1,20.97,11L18.006,8.747c-.023-.017-.047-.034-.068-.052a.385.385,0,0,1,.071-.7c.323-.169.654-.325.99-.489a.768.768,0,0,0-.028-.132,8.615,8.615,0,0,0-6.493-5.556A8.068,8.068,0,0,0,4.864,4.258,8.634,8.634,0,0,0,3,7.077a.747.747,0,0,1-.889.463.8.8,0,0,1-.573-.856,1.014,1.014,0,0,1,.08-.311A10.063,10.063,0,0,1,8.705.282,9.53,9.53,0,0,1,17.85,2.9a10.392,10.392,0,0,1,2.485,3.733c.016.04.032.08.05.119a.318.318,0,0,0,.043.049c.32-.156.646-.316.972-.473.31-.148.424-.112.6.177Z"/><path class="c" d="M10.594,22c-.411-.049-.826-.078-1.234-.151a10.11,10.11,0,0,1-6.937-4.68c-.16-.246-.3-.5-.442-.762s-.255-.511-.392-.788l-.966.473c-.428.207-.659.06-.619-.414q.168-2,.352-4.007c.036-.387.3-.51.614-.277q1.546,1.165,3.082,2.344a.381.381,0,0,1-.066.7c-.322.169-.65.324-1.033.514.323.552.6,1.107.949,1.605a8.379,8.379,0,0,0,6.936,3.782A8.1,8.1,0,0,0,16.591,18.1a8.869,8.869,0,0,0,2.247-3.193.756.756,0,0,1,.95-.484.821.821,0,0,1,.507.975,2.261,2.261,0,0,1-.152.378A10.223,10.223,0,0,1,13.5,21.618a17.769,17.769,0,0,1-2.008.344L11.285,22Z"/><path class="c" d="M11.473,14.455c0-.832,0-1.664,0-2.5a.689.689,0,0,1,.415-.685c1.592-.806,3.179-1.623,4.768-2.436.309-.158.4-.1.4.238q0,2.227,0,4.453a.717.717,0,0,1-.363.659l-4.846,3.044c-.082.051-.225.1-.284.066s-.09-.183-.091-.282C11.47,16.162,11.473,15.309,11.473,14.455Z"/><path class="c" d="M10.515,14.467c0,.846,0,1.692,0,2.539a.439.439,0,0,1-.1.3c-.043.036-.2-.027-.281-.079-1.6-1-3.191-2.013-4.793-3.011a.8.8,0,0,1-.412-.743c.008-1.449,0-2.9,0-4.347V9c.013-.241.121-.306.339-.2.614.31,1.226.625,1.839.939.99.507,1.974,1.021,2.97,1.516a.719.719,0,0,1,.442.732C10.506,12.817,10.515,13.644,10.515,14.467Z"/><path class="c" d="M10.963,10.735a3.6,3.6,0,0,1-.535-.168c-1.7-.839-3.4-1.687-5.108-2.531a.613.613,0,0,1-.387-.592.585.585,0,0,1,.393-.565c1.734-.7,3.469-1.4,5.2-2.109a1.162,1.162,0,0,1,.935,0c1.741.724,3.486,1.441,5.226,2.164a.571.571,0,0,1,.37.556.583.583,0,0,1-.349.57q-2.619,1.28-5.241,2.551A2.355,2.355,0,0,1,10.963,10.735Zm4.476-3.2c-.073-.038-.1-.057-.136-.07-1.338-.553-2.677-1.1-4.013-1.66a.726.726,0,0,0-.6,0c-1.334.545-2.668,1.082-4,1.622a1.168,1.168,0,0,0-.12.068c.06.037.094.061.129.079L10.782,9.6a.486.486,0,0,0,.469-.019Q13.171,8.638,15.1,7.7c.1-.049.2-.1.346-.171Z"/></g></g></svg>