<svg xmlns="http://www.w3.org/2000/svg" width="134.971" height="153.86" viewBox="0 0 134.971 153.86"><defs><style>.a{fill:#fff;}.b{isolation:isolate;}.c{fill:#099fdf;}</style></defs><g transform="translate(0.323 -0.016)"><path class="a" d="M105.2,23.523C102.429,20.1,89.5,6.068,66.658,9.427a50.942,50.942,0,0,0-40.8,35.044,75.336,75.336,0,0,0-3.3,27.584S21.994,98.3,43.362,115.73c0,0,27.509,22.156,65.122-5a1.245,1.245,0,0,1,1.608.124l.439.439a1.413,1.413,0,0,1,.4,1.2l-.9,6.448a6.943,6.943,0,0,1-3.9,5.3,88.128,88.128,0,0,1-69.024,2.171S7.748,113.856,3.249,74.68c0,0-5.436-42.876,32.99-65.766,0,0,32.859-19.494,74.6-.772a2.189,2.189,0,0,1,1.241,2.534l-3.048,12.03a2.156,2.156,0,0,1-2.249,1.623h-.052A2.167,2.167,0,0,1,105.2,23.523Z" transform="translate(-1.934 0)"/><path class="a" d="M131.713,107.688a8.585,8.585,0,0,0,3-6.5h0V89.007a11.532,11.532,0,0,0-4.9-9.432h0a16.8,16.8,0,0,0-9.657-3.055H49.234L0,152.243H15.494l10-15.993H65.729V148.18a4.068,4.068,0,0,0,4.068,4.068h50.13a15.543,15.543,0,0,0,10.5-4.071h0a13.2,13.2,0,0,0,4.292-9.747V126.136h0a9.036,9.036,0,0,0-3.258-6.928l-6.692-5.563ZM66.73,87.639v38.613H31.865L56.608,87.639Zm51.986,49.984a3,3,0,0,1-3,3H81.849V119.13h33.74a3.123,3.123,0,0,1,3.123,3.123Zm0-31.367a2.875,2.875,0,0,1-2.875,2.875H81.849V87.639h33.864a3,3,0,0,1,3,3Z" transform="translate(-0.068 -47.824)"/><path class="a" d="M41.161,373.13H157.81c5.059,0,9.161,3.277,9.161,7.32v2.478c0,4.042-4.1,7.319-9.161,7.319H41.161c-5.06,0-9.161-3.277-9.161-7.319V380.45C32,376.407,36.1,373.13,41.161,373.13Z" transform="translate(-32.323 -236.371)"/><g class="b" transform="translate(7.989 141.339)"><path class="c" d="M51.866,388.935l-.752,2.277h-.966l2.46-7.241h1.128l2.471,7.241h-1l-.774-2.277Zm2.374-.731-.709-2.084c-.161-.473-.268-.9-.376-1.321h-.022c-.107.429-.225.87-.365,1.31l-.709,2.095Z" transform="translate(-50.147 -383.586)"/><path class="c" d="M69.388,383.129v6.284c0,.462.011.988.043,1.343h-.848l-.043-.9h-.022a1.923,1.923,0,0,1-1.772,1.021,2.37,2.37,0,0,1-2.224-2.643,2.487,2.487,0,0,1,2.331-2.793,1.739,1.739,0,0,1,1.568.795h.022v-3.1Zm-.945,4.544a1.655,1.655,0,0,0-.043-.4,1.39,1.39,0,0,0-1.365-1.1c-.977,0-1.557.86-1.557,2.008,0,1.053.515,1.923,1.536,1.923a1.421,1.421,0,0,0,1.386-1.128,1.627,1.627,0,0,0,.043-.408Z" transform="translate(-57.938 -383.129)"/><path class="c" d="M78.171,388.428l1.021,2.922a13.193,13.193,0,0,1,.419,1.332h.033c.118-.43.268-.86.44-1.332l1.01-2.922h.988l-2.041,5.2h-.9l-1.976-5.2Z" transform="translate(-64.788 -386.001)"/><path class="c" d="M92.149,393.488l-.075-.655h-.033a1.935,1.935,0,0,1-1.589.774,1.481,1.481,0,0,1-1.59-1.493c0-1.257,1.117-1.944,3.126-1.934v-.107a1.072,1.072,0,0,0-1.181-1.2,2.592,2.592,0,0,0-1.354.387l-.215-.623a3.231,3.231,0,0,1,1.708-.462c1.59,0,1.977,1.085,1.977,2.127v1.944a7.359,7.359,0,0,0,.086,1.246Zm-.14-2.653c-1.031-.022-2.2.161-2.2,1.171a.836.836,0,0,0,.892.9,1.293,1.293,0,0,0,1.257-.87.99.99,0,0,0,.054-.3Z" transform="translate(-71.129 -385.862)"/><path class="c" d="M101.005,389.7c0-.537-.011-.977-.043-1.408h.838l.054.86h.022a1.912,1.912,0,0,1,1.719-.977c.72,0,1.837.43,1.837,2.213v3.1h-.945v-3c0-.838-.311-1.537-1.2-1.537a1.387,1.387,0,0,0-1.332,1.408v3.126h-.945Z" transform="translate(-77.687 -385.862)"/><path class="c" d="M117.332,393.308a3.484,3.484,0,0,1-1.493.3,2.47,2.47,0,0,1-2.589-2.653,2.642,2.642,0,0,1,2.793-2.761,3.155,3.155,0,0,1,1.31.269l-.215.731a2.187,2.187,0,0,0-1.1-.247,1.96,1.96,0,0,0-.033,3.91,2.689,2.689,0,0,0,1.161-.258Z" transform="translate(-84.346 -385.874)"/><path class="c" d="M124.517,391.06a1.666,1.666,0,0,0,1.783,1.805,3.421,3.421,0,0,0,1.44-.268l.161.677a4.215,4.215,0,0,1-1.73.322,2.414,2.414,0,0,1-2.557-2.621,2.524,2.524,0,0,1,2.439-2.8,2.2,2.2,0,0,1,2.148,2.449,3.61,3.61,0,0,1-.032.44Zm2.772-.677a1.346,1.346,0,0,0-1.31-1.536,1.567,1.567,0,0,0-1.451,1.536Z" transform="translate(-89.964 -385.862)"/><path class="c" d="M140.229,383.129v6.284c0,.462.011.988.043,1.343h-.849l-.043-.9h-.022a1.922,1.922,0,0,1-1.772,1.021,2.37,2.37,0,0,1-2.224-2.643,2.487,2.487,0,0,1,2.331-2.793,1.74,1.74,0,0,1,1.569.795h.021v-3.1Zm-.945,4.544a1.655,1.655,0,0,0-.043-.4,1.39,1.39,0,0,0-1.364-1.1c-.977,0-1.558.86-1.558,2.008,0,1.053.516,1.923,1.536,1.923a1.421,1.421,0,0,0,1.386-1.128,1.627,1.627,0,0,0,.043-.408Z" transform="translate(-96.331 -383.129)"/><path class="c" d="M154.451,384.006a9.046,9.046,0,0,1,1.708-.151,3,3,0,0,1,1.987.526,1.519,1.519,0,0,1,.6,1.279,1.719,1.719,0,0,1-1.225,1.589v.021a1.866,1.866,0,0,1,1.493,1.816,1.952,1.952,0,0,1-.612,1.45,3.635,3.635,0,0,1-2.5.677,10.918,10.918,0,0,1-1.451-.086Zm.935,2.965h.849c.988,0,1.568-.516,1.568-1.214,0-.848-.645-1.182-1.59-1.182a3.973,3.973,0,0,0-.827.065Zm0,3.47a5.016,5.016,0,0,0,.784.043c.967,0,1.858-.355,1.858-1.407,0-.988-.849-1.4-1.869-1.4h-.773Z" transform="translate(-106.676 -383.522)"/><path class="c" d="M171.4,392.21c0,.537.011,1.01.043,1.418h-.838l-.054-.849h-.022a1.956,1.956,0,0,1-1.719.967c-.817,0-1.794-.451-1.794-2.277v-3.04h.945v2.879c0,.988.3,1.654,1.16,1.654a1.33,1.33,0,0,0,1.332-1.343v-3.191h.945Z" transform="translate(-113.488 -386.001)"/><path class="c" d="M179.45,392.522a2.481,2.481,0,0,0,1.246.376c.688,0,1.01-.344,1.01-.774,0-.451-.268-.7-.966-.956-.935-.333-1.375-.849-1.375-1.472a1.6,1.6,0,0,1,1.794-1.525,2.591,2.591,0,0,1,1.278.322l-.236.688a2.021,2.021,0,0,0-1.064-.3c-.559,0-.87.323-.87.709,0,.43.311.623.988.881.9.344,1.364.795,1.364,1.568,0,.913-.709,1.557-1.944,1.557a2.965,2.965,0,0,1-1.461-.354Z" transform="translate(-120.096 -385.862)"/><path class="c" d="M190.21,384.54a.585.585,0,0,1-1.17,0,.576.576,0,0,1,.591-.591A.561.561,0,0,1,190.21,384.54Zm-1.053,6.66V386h.945v5.2Z" transform="translate(-125.421 -383.573)"/><path class="c" d="M194.734,389.7c0-.537-.011-.977-.043-1.408h.838l.054.86h.022a1.912,1.912,0,0,1,1.719-.977c.72,0,1.837.43,1.837,2.213v3.1h-.945v-3c0-.838-.311-1.537-1.2-1.537a1.387,1.387,0,0,0-1.332,1.408v3.126h-.945Z" transform="translate(-128.484 -385.862)"/><path class="c" d="M207.88,391.06a1.666,1.666,0,0,0,1.783,1.805,3.421,3.421,0,0,0,1.44-.268l.161.677a4.215,4.215,0,0,1-1.73.322,2.414,2.414,0,0,1-2.557-2.621,2.524,2.524,0,0,1,2.438-2.8,2.2,2.2,0,0,1,2.149,2.449,3.482,3.482,0,0,1-.033.44Zm2.772-.677a1.346,1.346,0,0,0-1.311-1.536,1.567,1.567,0,0,0-1.45,1.536Z" transform="translate(-135.143 -385.862)"/><path class="c" d="M218.986,392.522a2.482,2.482,0,0,0,1.246.376c.688,0,1.01-.344,1.01-.774,0-.451-.268-.7-.966-.956-.935-.333-1.375-.849-1.375-1.472a1.6,1.6,0,0,1,1.794-1.525,2.591,2.591,0,0,1,1.278.322l-.236.688a2.02,2.02,0,0,0-1.064-.3c-.559,0-.87.323-.87.709,0,.43.311.623.988.881.9.344,1.364.795,1.364,1.568,0,.913-.709,1.557-1.944,1.557a2.965,2.965,0,0,1-1.461-.354Z" transform="translate(-141.523 -385.862)"/><path class="c" d="M228.272,392.522a2.482,2.482,0,0,0,1.246.376c.688,0,1.009-.344,1.009-.774,0-.451-.268-.7-.966-.956-.935-.333-1.375-.849-1.375-1.472a1.6,1.6,0,0,1,1.794-1.525,2.591,2.591,0,0,1,1.278.322l-.236.688a2.02,2.02,0,0,0-1.064-.3c-.559,0-.87.323-.87.709,0,.43.311.623.988.881.9.344,1.364.795,1.364,1.568,0,.913-.709,1.557-1.944,1.557a2.966,2.966,0,0,1-1.461-.354Z" transform="translate(-146.556 -385.862)"/><path class="c" d="M247.713,390.837a4.644,4.644,0,0,1-1.912.344,3.384,3.384,0,0,1-3.577-3.663,3.6,3.6,0,0,1,3.781-3.8,3.875,3.875,0,0,1,1.719.323l-.226.763a3.405,3.405,0,0,0-1.461-.3,2.693,2.693,0,0,0-2.825,2.987,2.632,2.632,0,0,0,2.783,2.911,3.743,3.743,0,0,0,1.526-.3Z" transform="translate(-154.245 -383.446)"/><path class="c" d="M260.694,390.846a2.541,2.541,0,0,1-2.589,2.761,2.472,2.472,0,0,1-2.492-2.675,2.539,2.539,0,0,1,2.578-2.761A2.462,2.462,0,0,1,260.694,390.846Zm-4.125.054c0,1.139.655,2,1.579,2,.9,0,1.579-.849,1.579-2.019,0-.881-.441-2-1.557-2S256.569,389.911,256.569,390.9Z" transform="translate(-161.501 -385.862)"/><path class="c" d="M269.256,389.7c0-.537-.011-.977-.043-1.408h.839l.054.86h.022a1.911,1.911,0,0,1,1.719-.977c.72,0,1.837.43,1.837,2.213v3.1h-.945v-3c0-.838-.311-1.537-1.2-1.537a1.344,1.344,0,0,0-1.268.967,1.369,1.369,0,0,0-.064.44v3.126h-.946Z" transform="translate(-168.872 -385.862)"/><path class="c" d="M282.668,385.169v1.493h1.354v.72h-1.354v2.8c0,.644.183,1.009.709,1.009a2.114,2.114,0,0,0,.548-.065l.043.709a2.316,2.316,0,0,1-.838.129,1.31,1.31,0,0,1-1.021-.4,1.927,1.927,0,0,1-.365-1.354v-2.836h-.806v-.72h.806v-1.245Z" transform="translate(-175.227 -384.235)"/><path class="c" d="M289.939,389.911c0-.612-.011-1.139-.043-1.622h.828l.032,1.021h.043a1.559,1.559,0,0,1,1.439-1.139,1.017,1.017,0,0,1,.268.032v.892a1.419,1.419,0,0,0-.322-.032,1.325,1.325,0,0,0-1.267,1.213,2.666,2.666,0,0,0-.043.441v2.772h-.935Z" transform="translate(-180.081 -385.862)"/><path class="c" d="M301.684,390.846a2.541,2.541,0,0,1-2.589,2.761,2.472,2.472,0,0,1-2.492-2.675,2.539,2.539,0,0,1,2.578-2.761A2.462,2.462,0,0,1,301.684,390.846Zm-4.125.054c0,1.139.655,2,1.579,2,.9,0,1.579-.849,1.579-2.019,0-.881-.441-2-1.558-2S297.559,389.911,297.559,390.9Z" transform="translate(-183.716 -385.862)"/><path class="c" d="M310.3,383.129h.946v7.627H310.3Z" transform="translate(-191.138 -383.129)"/></g></g></svg>