<svg xmlns="http://www.w3.org/2000/svg" xmlns:xlink="http://www.w3.org/1999/xlink" width="17" height="17" viewBox="0 0 17 17"><defs><style>.a{fill:#3d721f;}.b{clip-path:url(#a);}.c{fill:#099fdf;}</style><clipPath id="a"><rect class="a" width="17" height="17" transform="translate(288 41)"/></clipPath></defs><g class="b" transform="translate(-288 -41)"><g transform="translate(288 41)"><path class="c" d="M12.076,0H4.923A1.237,1.237,0,0,0,3.686,1.239V15.763A1.237,1.237,0,0,0,4.923,17h7.153a1.238,1.238,0,0,0,1.238-1.237V1.239A1.239,1.239,0,0,0,12.076,0Zm.31,13.774H4.614V2.09h7.772ZM10.158,1.257H6.841V.9h3.317v.362Zm1.419-.165A.317.317,0,1,1,11.26.775.317.317,0,0,1,11.577,1.092ZM10.009,15.68H6.989v-.929h3.02Z"/></g></g></svg>