<svg xmlns="http://www.w3.org/2000/svg" xmlns:xlink="http://www.w3.org/1999/xlink" width="22" height="22" viewBox="0 0 22 22"><defs><style>.a{fill:#099fdf;}.b{clip-path:url(#a);}.c{fill:#544f57;}.d{fill:#2b4d66;}.e{fill:#4a80aa;}.f{fill:#067fb2;}.g{fill:#e4f6ff;}.h{fill:#d3effb;}</style><clipPath id="a"><rect class="a" width="22" height="22" transform="translate(86 196)"/></clipPath></defs><g class="b" transform="translate(-86 -196)"><g transform="translate(86 196)"><path class="c" d="M18.873,13.594h-.9a.266.266,0,0,1-.266-.266V3.127a.266.266,0,0,1,.266-.266h.9a.266.266,0,0,1,.266.266v10.2A.266.266,0,0,1,18.873,13.594Z"/><path class="c" d="M4.027,13.594h-.9a.266.266,0,0,1-.266-.266V3.127a.266.266,0,0,1,.266-.266h.9a.266.266,0,0,1,.266.266v10.2A.266.266,0,0,1,4.027,13.594Z"/><path class="c" d="M11.45,11.268h-.9A.266.266,0,0,1,10.285,11V3.127a.266.266,0,0,1,.266-.266h.9a.266.266,0,0,1,.266.266V11A.266.266,0,0,1,11.45,11.268Z"/><path class="a" d="M18.423.266v.9a.266.266,0,0,0,.266.266h1.881V3.312a.266.266,0,0,0,.266.266h.9A.266.266,0,0,0,22,3.312V.266A.266.266,0,0,0,21.734,0H18.688a.266.266,0,0,0-.266.266Z"/><path class="a" d="M3.577.266v.9a.266.266,0,0,1-.266.266H1.431V3.312a.266.266,0,0,1-.266.266h-.9A.266.266,0,0,1,0,3.312V.266A.266.266,0,0,1,.266,0H3.312a.266.266,0,0,1,.266.266Z"/><path class="a" d="M18.423,16.19v-.9a.266.266,0,0,1,.266-.266h1.881V13.144a.266.266,0,0,1,.266-.266h.9a.266.266,0,0,1,.266.266V16.19a.266.266,0,0,1-.266.266H18.688a.266.266,0,0,1-.266-.266Z"/><path class="a" d="M3.577,16.19v-.9a.266.266,0,0,0-.266-.266H1.431V13.144a.266.266,0,0,0-.266-.266h-.9A.266.266,0,0,0,0,13.144V16.19a.266.266,0,0,0,.266.266H3.312a.266.266,0,0,0,.266-.266Z"/><path class="c" d="M13.213,10.929a.332.332,0,0,1-.332-.332v-7.4a.332.332,0,0,1,.664,0v7.4A.332.332,0,0,1,13.213,10.929Z"/><path class="c" d="M14.711,11.6a.332.332,0,0,1-.332-.332V3.194a.332.332,0,0,1,.664,0v8.074a.332.332,0,0,1-.332.332Z"/><path class="c" d="M16.209,11.6a.332.332,0,0,1-.332-.332V3.194a.332.332,0,0,1,.664,0v8.074a.332.332,0,0,1-.332.332Z"/><path class="c" d="M8.787,10.929a.332.332,0,0,1-.332-.332v-7.4a.332.332,0,1,1,.664,0v7.4A.332.332,0,0,1,8.787,10.929Z"/><path class="c" d="M7.289,11.6a.332.332,0,0,1-.332-.332V3.194a.332.332,0,0,1,.664,0v8.074a.332.332,0,0,1-.332.332Z"/><path class="c" d="M5.791,11.6a.332.332,0,0,1-.332-.332V3.194a.332.332,0,1,1,.664,0v8.074a.332.332,0,0,1-.332.332Z"/><path class="d" d="M13.893,18.916h2.683v1.609H13.893Z" transform="translate(-9.484 16.551) rotate(-45)"/><path class="e" d="M18.117,22H16.559a.443.443,0,0,1-.313-.13l-1.009-1.009,1.138-1.138,1.9,1.9A.221.221,0,0,1,18.117,22Z"/><circle class="a" cx="5.366" cy="5.366" r="5.366" transform="translate(5.634 10.121)"/><path class="f" d="M14.245,11.213a5.366,5.366,0,0,1-7.518,7.518,5.366,5.366,0,1,0,7.518-7.518Z"/><circle class="g" cx="3.935" cy="3.935" r="3.935" transform="translate(7.065 11.552)"/><path class="h" d="M13.376,12.35a3.935,3.935,0,0,1-5.513,5.513,3.935,3.935,0,1,0,5.513-5.513Z"/></g></g></svg>