<svg xmlns="http://www.w3.org/2000/svg" xmlns:xlink="http://www.w3.org/1999/xlink" width="22" height="22" viewBox="0 0 22 22"><defs><style>.a{fill:#a51818;}.b{clip-path:url(#a);}.c{fill:#099fdf;}</style><clipPath id="a"><rect class="a" width="22" height="22" transform="translate(86 196)"/></clipPath></defs><g class="b" transform="translate(-86 -196)"><g transform="translate(86 196)"><rect class="c" width="1.467" height="15.889" transform="translate(0 3.056)"/><rect class="c" width="0.978" height="11.733" transform="translate(2.2 3.056)"/><rect class="c" width="0.978" height="11.733" transform="translate(4.889 3.056)"/><rect class="c" width="1.467" height="11.733" transform="translate(6.6 3.056)"/><rect class="c" width="0.733" height="11.733" transform="translate(3.667 3.056)"/><rect class="c" width="0.733" height="11.733" transform="translate(8.556 3.056)"/><path class="c" d="M13.526,3.056H11.978V14.789h2.933V3.056H13.526Z"/><rect class="c" width="1.222" height="11.733" transform="translate(9.778 3.056)"/><rect class="c" width="1.467" height="11.733" transform="translate(18.822 3.056)"/><path class="c" d="M17.192,3.056h-1.3V14.789h2.2V3.056h-.9Z"/><rect class="c" width="1.222" height="15.889" transform="translate(20.778 3.056)"/><path class="c" d="M4.032,17.632c0,.837-.31,1.3-.856,1.3-.481,0-.806-.45-.814-1.264s.356-1.279.856-1.279C3.736,16.386,4.032,16.848,4.032,17.632ZM2.7,17.67c0,.64.2,1,.5,1,.341,0,.5-.4.5-1.026,0-.606-.155-1-.5-1C2.907,16.644,2.7,17,2.7,17.67Z"/><path class="c" d="M5.1,16.739H5.092l-.428.231L4.6,16.716l.538-.288h.284v2.461H5.1Z"/><path class="c" d="M6.358,18.889v-.2l.261-.254c.628-.6.912-.916.916-1.287a.439.439,0,0,0-.488-.481.837.837,0,0,0-.523.208l-.106-.235a1.08,1.08,0,0,1,.7-.25.692.692,0,0,1,.753.716c0,.454-.329.822-.848,1.321l-.2.182v.007H7.929v.276Z"/><path class="c" d="M8.418,18.506a1.113,1.113,0,0,0,.545.155c.428,0,.56-.272.557-.477,0-.344-.314-.492-.636-.492H8.7v-.25h.186c.242,0,.549-.125.549-.417,0-.2-.125-.371-.432-.371a.9.9,0,0,0-.492.163l-.087-.242a1.168,1.168,0,0,1,.644-.189c.485,0,.7.288.7.587a.611.611,0,0,1-.454.579v.007a.641.641,0,0,1,.549.632c0,.394-.307.738-.9.738a1.249,1.249,0,0,1-.64-.166Z"/><path class="c" d="M11.349,18.889v-.67H10.206V18l1.1-1.571h.36v1.53h.344v.261h-.344v.67h-.314Zm0-.931v-.822q0-.193.012-.386h-.012c-.076.144-.136.25-.2.364l-.6.837v.008Z"/><path class="c" d="M13.77,16.708h-.939l-.095.632a1.308,1.308,0,0,1,.2-.015,1.041,1.041,0,0,1,.53.133.7.7,0,0,1,.352.632.854.854,0,0,1-.916.84,1.207,1.207,0,0,1-.613-.151l.083-.254a1.1,1.1,0,0,0,.526.136.543.543,0,0,0,.583-.534c0-.318-.216-.545-.708-.545a2.574,2.574,0,0,0-.341.026l.159-1.181h1.177v.28h0Z"/><path class="c" d="M15.686,16.663a1.193,1.193,0,0,0-.25.015,1,1,0,0,0-.856.875h.011a.75.75,0,0,1,1.337.511.823.823,0,0,1-.818.867c-.526,0-.871-.409-.871-1.049a1.547,1.547,0,0,1,.417-1.109,1.339,1.339,0,0,1,.788-.364,1.591,1.591,0,0,1,.242-.019v.272h0Zm-.095,1.42a.5.5,0,0,0-.507-.564.548.548,0,0,0-.477.3.28.28,0,0,0-.038.148c.008.405.193.7.541.7C15.4,18.673,15.591,18.435,15.591,18.083Z"/><path class="c" d="M17.86,16.428v.219l-1.071,2.241h-.344l1.068-2.177V16.7h-1.2v-.276Z"/><path class="c" d="M18.213,18.264a.7.7,0,0,1,.488-.659l0-.012a.61.61,0,0,1-.39-.553.689.689,0,0,1,.761-.655.636.636,0,0,1,.716.606.625.625,0,0,1-.405.575v.012a.682.682,0,0,1,.5.636.758.758,0,0,1-.837.716C18.523,18.93,18.213,18.624,18.213,18.264Zm1.325-.015c0-.3-.208-.443-.541-.538a.535.535,0,0,0-.443.507.455.455,0,0,0,.492.469A.445.445,0,0,0,19.538,18.249Zm-.916-1.231c0,.246.186.379.469.454a.485.485,0,0,0,.375-.447.382.382,0,0,0-.416-.4A.392.392,0,0,0,18.622,17.018Z"/></g></g></svg>