<svg xmlns="http://www.w3.org/2000/svg" xmlns:xlink="http://www.w3.org/1999/xlink" width="22" height="22" viewBox="0 0 22 22"><defs><style>.a{fill:#a51818;}.b{clip-path:url(#a);}.c{fill:#099fdf;}</style><clipPath id="a"><rect class="a" width="22" height="22" transform="translate(86 196)"/></clipPath></defs><g class="b" transform="translate(-86 -196)"><g transform="translate(86 196)"><circle class="c" cx="2.666" cy="2.666" r="2.666" transform="translate(5.126 16.43)"/><path class="c" d="M16.335,16.4h0a2.692,2.692,0,1,0,2.416,2.416A2.692,2.692,0,0,0,16.335,16.4Z"/><path class="c" d="M21.824,6.256a.7.7,0,0,0-.6-.311H18.277V5.894a5.669,5.669,0,1,0-11.339,0h0v.052h-2.2L3.987,2.528a.777.777,0,0,0-.751-.6H0V3.486H2.615L5.022,14.54a.751.751,0,0,0,.751.621H19.312a.777.777,0,0,0,.751-.6L21.979,6.9A.725.725,0,0,0,21.824,6.256ZM12.607,10.01a4.116,4.116,0,1,1,4.116-4.116A4.116,4.116,0,0,1,12.607,10.01Z"/><path class="c" d="M11.986,5.971l-1.424-1.45L9.449,5.609,11.417,7.6a.777.777,0,0,0,.544.233.725.725,0,0,0,.544-.207l3.262-3.081L14.7,3.409Z"/></g></g></svg>