<svg xmlns="http://www.w3.org/2000/svg" xmlns:xlink="http://www.w3.org/1999/xlink" width="22" height="22" viewBox="0 0 22 22"><defs><style>.a{fill:#a51818;}.b{clip-path:url(#a);}.c{fill:#099fdf;}</style><clipPath id="a"><rect class="a" width="22" height="22" transform="translate(86 196)"/></clipPath></defs><g class="b" transform="translate(-86 -196)"><g transform="translate(86 196)"><path class="c" d="M14.438,1.375H12.944a2.063,2.063,0,0,0-3.89,0H7.563a.688.688,0,0,0-.687.688v2.75a.688.688,0,0,0,.688.688h6.875a.688.688,0,0,0,.688-.687V2.063A.688.688,0,0,0,14.438,1.375Z"/><path class="c" d="M17.875,2.75H16.5V4.813a2.065,2.065,0,0,1-2.062,2.063H7.563A2.065,2.065,0,0,1,5.5,4.813V2.75H4.125A1.377,1.377,0,0,0,2.75,4.125v16.5A1.36,1.36,0,0,0,4.125,22h13.75a1.36,1.36,0,0,0,1.375-1.375V4.125A1.36,1.36,0,0,0,17.875,2.75ZM10.8,14.924l-2.75,2.75a.69.69,0,0,1-.973,0L5.7,16.3a.687.687,0,0,1,.972-.972l.89.888,2.263-2.263a.688.688,0,0,1,.973.972Zm0-5.5-2.75,2.75a.69.69,0,0,1-.973,0L5.7,10.8a.687.687,0,0,1,.972-.972l.89.888L9.826,8.452a.688.688,0,0,1,.973.972ZM15.813,16.5h-2.75a.688.688,0,0,1,0-1.375h2.75a.688.688,0,0,1,0,1.375Zm0-5.5h-2.75a.688.688,0,0,1,0-1.375h2.75a.688.688,0,0,1,0,1.375Z"/></g></g></svg>