<svg xmlns="http://www.w3.org/2000/svg" xmlns:xlink="http://www.w3.org/1999/xlink" width="26" height="26" viewBox="0 0 26 26"><defs><style>.a{fill:#2a0a0a;}.b{clip-path:url(#a);}.c{fill:#fff;}</style><clipPath id="a"><rect class="a" width="26" height="26" transform="translate(0.236)"/></clipPath></defs><g class="b" transform="translate(-0.236)"><g transform="translate(0.72 3.783)"><path class="c" d="M29.371,5.864a4.137,4.137,0,0,0,0,5.843l-1,1a5.554,5.554,0,0,1,0-7.848Z" transform="translate(-26.744 -3.823)"/><path class="c" d="M25.053,7.347l1,1a1.3,1.3,0,0,0,0,1.833l-1,1A2.717,2.717,0,0,1,25.053,7.347Z" transform="translate(-21.424 -4.304)"/><path class="c" d="M18.433,3.574,21.741,13.5h-2.99L15.443,3.574Z" transform="translate(-9.999 -3.574)"/><path class="c" d="M2.42,17.637H3.915l.473,1.418H6.048l-.473-1.418H10l1.4,4.3a2.126,2.126,0,0,1-2.022,2.786H7.938L6.521,20.473H3.365Z" transform="translate(10.74 -6.293)"/><path class="c" d="M10.727,13.5H3.309L0,3.574H10.727a3.545,3.545,0,0,1,3.545,3.545V9.955A3.545,3.545,0,0,1,10.727,13.5Z" transform="translate(9.928 -3.574)"/></g></g></svg>