<svg xmlns="http://www.w3.org/2000/svg" xmlns:xlink="http://www.w3.org/1999/xlink" width="16" height="16" viewBox="0 0 16 16"><defs><style>.a{fill:#2d0404;}.b{clip-path:url(#a);}.c{fill:#099fdf;}</style><clipPath id="a"><rect class="a" width="16" height="16" transform="translate(301 35)"/></clipPath></defs><g class="b" transform="translate(-301 -35)"><g transform="translate(301 35)"><path class="c" d="M2.667,1.6H.533A.534.534,0,0,0,0,2.133V4.267a.533.533,0,0,0,1.067,0v-1.6h1.6a.533.533,0,1,0,0-1.067Z"/><path class="c" d="M15.467,11.2a.534.534,0,0,0-.533.533v1.6h-1.6a.533.533,0,0,0,0,1.067h2.133A.534.534,0,0,0,16,13.867V11.733A.534.534,0,0,0,15.467,11.2Z"/><path class="c" d="M15.467,1.6H13.333a.533.533,0,0,0,0,1.067h1.6v1.6a.533.533,0,1,0,1.067,0V2.133A.534.534,0,0,0,15.467,1.6Z"/><path class="c" d="M2.667,13.333h-1.6v-1.6a.533.533,0,0,0-1.067,0v2.133a.534.534,0,0,0,.533.533H2.667a.533.533,0,1,0,0-1.067Z"/><rect class="c" width="1.067" height="8.533" transform="translate(2.133 3.733)"/><rect class="c" width="1.067" height="6.4" transform="translate(4.267 3.733)"/><rect class="c" width="1.067" height="6.4" transform="translate(6.4 3.733)"/><rect class="c" width="1.067" height="8.533" transform="translate(8.533 3.733)"/><rect class="c" width="1.067" height="6.4" transform="translate(10.667 3.733)"/><rect class="c" width="1.067" height="8.533" transform="translate(12.8 3.733)"/><rect class="c" width="1.067" height="1.067" transform="translate(4.267 11.2)"/><rect class="c" width="1.067" height="1.067" transform="translate(6.4 11.2)"/><rect class="c" width="1.067" height="1.067" transform="translate(10.667 11.2)"/></g></g></svg>