<svg xmlns="http://www.w3.org/2000/svg" xmlns:xlink="http://www.w3.org/1999/xlink" width="17" height="17" viewBox="0 0 17 17"><defs><style>.a{fill:#3d721f;}.b{clip-path:url(#a);}.c{fill:#099fdf;}</style><clipPath id="a"><rect class="a" width="17" height="17" transform="translate(319.246 37.246)"/></clipPath></defs><g class="b" transform="translate(-319.246 -37.246)"><g transform="translate(319.292 37.057)"><path class="c" d="M17.079,10.974,15.246,9.536a6.824,6.824,0,0,0,.061-.847,6.824,6.824,0,0,0-.061-.847L17.084,6.4a.433.433,0,0,0,.1-.556L15.45,2.837a.43.43,0,0,0-.53-.187l-2.164.873a6.593,6.593,0,0,0-1.468-.856l-.326-2.3A.447.447,0,0,0,10.528,0H7.052a.439.439,0,0,0-.43.365L6.3,2.668a6.43,6.43,0,0,0-1.468.856L2.664,2.65a.435.435,0,0,0-.53.187L.4,5.848A.435.435,0,0,0,.5,6.4L2.334,7.842a6.823,6.823,0,0,0-.061.847,6.823,6.823,0,0,0,.061.847L.5,10.974a.433.433,0,0,0-.1.556l1.738,3.011a.43.43,0,0,0,.53.187l2.164-.873A6.593,6.593,0,0,0,6.3,14.71l.326,2.3a.439.439,0,0,0,.43.365h3.476a.439.439,0,0,0,.43-.365l.326-2.3a6.43,6.43,0,0,0,1.468-.856l2.164.873a.435.435,0,0,0,.53-.187l1.738-3.011A.435.435,0,0,0,17.079,10.974ZM8.79,11.73a3.041,3.041,0,1,1,3.041-3.041A3.039,3.039,0,0,1,8.79,11.73Z" transform="translate(-0.338)"/></g></g></svg>