<svg xmlns="http://www.w3.org/2000/svg" width="32.82" height="32.261" viewBox="0 0 32.82 32.261"><defs><style>.a{fill:#393184;}.b{fill:#099fdf;}</style></defs><g transform="translate(0.115 -0.016)"><path class="a" d="M27.888,5.743A10.1,10.1,0,0,0,18.5,2.309a12.411,12.411,0,0,0-9.94,8.538,18.354,18.354,0,0,0-.8,6.72,14.428,14.428,0,0,0,5.069,10.64s6.7,5.4,15.865-1.217a.3.3,0,0,1,.392.03l.107.107a.344.344,0,0,1,.1.291l-.22,1.571a1.691,1.691,0,0,1-.95,1.292A21.47,21.47,0,0,1,11.3,30.81s-7.152-3.06-8.248-12.6c0,0-1.324-10.446,8.037-16.022A20.709,20.709,0,0,1,29.262,2a.533.533,0,0,1,.3.617l-.743,2.931a.525.525,0,0,1-.548.4h-.013A.528.528,0,0,1,27.888,5.743Z" transform="translate(-2.828 0)"/><path class="b" d="M32.089,84.113a2.092,2.092,0,0,0,.731-1.584h0V79.562a2.809,2.809,0,0,0-1.194-2.3h0a4.093,4.093,0,0,0-2.353-.744H11.995L0,94.968H3.775l2.436-3.9h9.8v2.906a.991.991,0,0,0,.991.991H29.217a3.787,3.787,0,0,0,2.557-.992h0A3.216,3.216,0,0,0,32.82,91.6V88.608h0a2.2,2.2,0,0,0-.794-1.688L30.4,85.565ZM16.257,79.229v9.407H7.763l6.028-9.407ZM28.922,91.406a.731.731,0,0,1-.731.731H19.941V86.9h8.22a.761.761,0,0,1,.761.761Zm0-7.642a.7.7,0,0,1-.7.7H19.941V79.229h8.25a.731.731,0,0,1,.731.731Z" transform="translate(-0.115 -69.516)"/></g></svg>