<svg xmlns="http://www.w3.org/2000/svg" xmlns:xlink="http://www.w3.org/1999/xlink" width="22" height="22" viewBox="0 0 22 22"><defs><style>.a{fill:#a51818;}.b{clip-path:url(#a);}.c{fill:#099fdf;}</style><clipPath id="a"><rect class="a" width="22" height="22" transform="translate(86 196)"/></clipPath></defs><g class="b" transform="translate(-86 -196)"><g transform="translate(86 197.349)"><path class="c" d="M18.541,5.2"/><path class="c" d="M22,2.6,13.385,0,11,2.134,8.508.258,0,3.824,2.954,6.209.3,10.4,8.83,14.115l2.02-4.662,1.794,4.125,8.948-4.662L19.153,5.2ZM10.807,8.852,3.728,5.822,11,2.6l7.541,2.6Z"/><path class="c" d="M3.36,12.772,3.5,15.837,10.908,19.3l8.622-4.211L19.4,11.125,12.3,14.9l-1.439-3.269L9.3,15.386Z"/></g></g></svg>