<svg xmlns="http://www.w3.org/2000/svg" xmlns:xlink="http://www.w3.org/1999/xlink" width="16" height="16" viewBox="0 0 16 16"><defs><style>.a{fill:#2d0404;}.b{clip-path:url(#a);}.c{fill:#099fdf;}</style><clipPath id="a"><rect class="a" width="16" height="16" transform="translate(324 35)"/></clipPath></defs><g class="b" transform="translate(-324 -35)"><g transform="translate(324 35)"><path class="c" d="M8,7.825c1.779,0,3.221-1.752,3.221-3.913S10.748,0,8,0,4.779,1.752,4.779,3.913,6.221,7.825,8,7.825Z"/><path class="c" d="M1.916,13.8c0-.132,0-.037,0,0Z"/><path class="c" d="M14.084,13.9c0-.036,0-.25,0,0Z"/><path class="c" d="M14.077,13.641c-.06-3.764-.551-4.837-4.313-5.516A2.255,2.255,0,0,1,8,8.8a2.255,2.255,0,0,1-1.764-.675C2.515,8.8,1.994,9.853,1.925,13.519c-.006.3-.008.315-.009.28,0,.065,0,.186,0,.4,0,0,.9,1.806,6.084,1.806s6.084-1.806,6.084-1.806c0-.135,0-.229,0-.293A2.423,2.423,0,0,1,14.077,13.641Z"/></g></g></svg>